<svg aria-hidden="true" style="position: absolute; width: 0; height: 0; overflow: hidden;" version="1.1" xmlns="http://www.w3.org/2000/svg" xmlns:xlink="http://www.w3.org/1999/xlink">
<defs>
<symbol id="announcement-icon" viewBox="0 0 32 32">
<path d="M21.246 5.654c-0.276 0.227-0.684 0.191-0.914-0.088s-0.191-0.684 0.088-0.914l3.889-3.213c0.276-0.227 0.684-0.191 0.914 0.085 0.227 0.276 0.191 0.684-0.088 0.914l-3.889 3.215zM2.354 16.975c-0.428 0.126-0.743 0.405-0.952 0.774-0.24 0.426-0.348 0.975-0.341 1.564 0.003 0.253 0.028 0.514 0.072 0.777 0.044 0.266 0.111 0.532 0.194 0.792 0.085 0.263 0.188 0.519 0.31 0.764 0.119 0.237 0.253 0.465 0.4 0.671v0c0.361 0.503 0.81 0.903 1.329 1.105 0.452 0.178 0.96 0.204 1.507 0.015l0.010-0.003c0.062-0.021 0.124-0.028 0.186-0.023 0.044 0.003 0.088 0.010 0.132 0.023l0.013-0.005c0.147-0.049 0.299-0.095 0.449-0.142l0.41-0.126c0.15-0.044 0.292-0.085 0.426-0.124 0.132-0.039 0.266-0.075 0.403-0.111 0.142-0.039 0.284-0.015 0.403 0.052l0.013 0.008c0.111 0.067 0.196 0.175 0.235 0.312 0.008 0.023 0.010 0.041 0.013 0.062 0.036 0.163 0.080 0.33 0.111 0.493 0.281 1.259 0.555 2.472 0.919 3.455 0.031 0.098 0.070 0.194 0.106 0.292 0.111 0.31 0.227 0.63 0.356 0.921 0.124 0.284 0.255 0.537 0.405 0.723v0.003c0.111 0.139 0.24 0.227 0.392 0.235 0.168 0.008 0.377-0.072 0.64-0.276 0.114-0.106 0.217-0.196 0.323-0.286l0.023-0.021c0.31-0.268 0.619-0.534 0.754-0.898-0.021-0.015-0.044-0.031-0.070-0.044-0.059-0.034-0.134-0.067-0.209-0.098l-0.008-0.003c-0.276-0.116-0.55-0.235-0.748-0.483-0.201-0.25-0.31-0.614-0.235-1.208 0.003-0.036 0.008-0.067 0.013-0.098 0.005-0.036 0.010-0.072 0.013-0.108 0.034-0.268 0.052-0.408 0.041-0.446v-0.005c-0.008-0.010-0.062-0.049-0.17-0.15-0.031-0.028-0.065-0.057-0.093-0.088-0.16-0.15-0.274-0.328-0.346-0.524-0.080-0.217-0.111-0.454-0.108-0.702 0.003-0.243 0.039-0.495 0.093-0.735 0.067-0.292 0.163-0.57 0.258-0.8l0.005-0.008c0.036-0.085 0.093-0.155 0.16-0.206 0.072-0.057 0.16-0.093 0.25-0.106h0.005c1.954-0.271 3.53-0.235 4.854-0.065 1.195 0.155 2.178 0.415 3.053 0.663-0.668-0.761-1.283-1.657-1.837-2.632-0.715-1.259-1.329-2.655-1.825-4.070-0.501-1.43-0.88-2.88-1.117-4.232-0.199-1.135-0.299-2.204-0.286-3.13-0.746 1.071-1.75 2.372-3.226 3.683-1.685 1.494-3.987 3.001-7.228 4.194-0.034 0.010-0.067 0.023-0.101 0.034l-0.015 0.026c0 0 0.003-0.003-0.057 0.090l-0.005 0.008c-0.034 0.052-0.075 0.095-0.121 0.132v0c-0.052 0.039-0.108 0.070-0.17 0.088h-0.008zM17.076 18.973c0.485 0.932 1.022 1.799 1.603 2.55 0.552 0.712 1.146 1.324 1.77 1.786l0.065 0.005c0.031 0.003 0.062 0.003 0.088 0h0.010c0.049-0.003 0.098-0.010 0.15-0.026 0.049-0.015 0.101-0.039 0.155-0.070 0.132-0.134 0.24-0.31 0.328-0.516 0.098-0.227 0.17-0.495 0.217-0.795 0.142-0.885 0.075-2.018-0.145-3.27-0.24-1.368-0.666-2.872-1.203-4.346-0.526-1.448-1.161-2.862-1.837-4.085-0.643-1.166-1.321-2.157-1.977-2.836-0.245-0.255-0.483-0.459-0.707-0.606-0.209-0.137-0.403-0.225-0.581-0.253h-0.005c-0.041-0.008-0.075-0.010-0.101-0.013-0.010 0 0-0.008-0.005-0.005v0c-0.003 0-0.003 0.005-0.015 0.015-0.023 0.021-0.057 0.052-0.095 0.090-0.034 0.031-0.067 0.070-0.098 0.106l-0.010 0.021c-0.299 0.619-0.403 1.6-0.338 2.795 0.067 1.213 0.31 2.64 0.705 4.121 1.123-0.258 2-0.021 2.604 0.483 0.354 0.294 0.609 0.676 0.766 1.102 0.155 0.423 0.212 0.89 0.165 1.357-0.088 0.919-0.581 1.827-1.507 2.39v0zM20.359 24.364c-0.052 0.008-0.103 0.008-0.155 0-0.049-0.008-0.098-0.021-0.145-0.044-0.070-0.013-0.139-0.026-0.206-0.041-0.488-0.101-0.963-0.237-1.474-0.382l-0.034-0.010c-1.752-0.498-3.943-1.123-7.453-0.689-0.046 0.134-0.085 0.279-0.116 0.421-0.031 0.15-0.049 0.299-0.052 0.436 0 0.108 0.010 0.209 0.034 0.292 0.018 0.062 0.046 0.114 0.085 0.15l0.062 0.057c0.286 0.261 0.426 0.39 0.506 0.684 0.065 0.237 0.036 0.457-0.021 0.89-0.008 0.059-0.013 0.119-0.023 0.178-0.026 0.209 0.008 0.33 0.070 0.405 0.065 0.077 0.175 0.126 0.289 0.173l0.013 0.005c0.361 0.155 0.723 0.312 0.908 0.826 0.021 0.046 0.034 0.098 0.039 0.15s0.005 0.103-0.005 0.157v0.003c-0.080 0.415-0.25 0.733-0.465 1.004-0.209 0.266-0.457 0.477-0.702 0.689l-0.057 0.049c-0.085 0.072-0.168 0.145-0.248 0.222l-0.041 0.036c-0.56 0.446-1.037 0.606-1.458 0.563-0.426-0.044-0.779-0.297-1.079-0.674-0.206-0.258-0.377-0.575-0.529-0.914-0.15-0.335-0.279-0.689-0.403-1.032-0.034-0.095-0.070-0.191-0.106-0.286-0.382-1.030-0.663-2.281-0.952-3.574-0.093 0.026-0.186 0.057-0.279 0.083-0.145 0.044-0.286 0.085-0.423 0.129-0.139 0.044-0.276 0.088-0.41 0.129l-0.008 0.003c-0.021 0.005-0.036 0.013-0.049 0.018l-0.008 0.003c-0.098 0.041-0.17 0.070-0.253 0.077-0.075 0.008-0.145 0-0.227-0.031-0.746 0.206-1.435 0.145-2.049-0.103-0.697-0.284-1.295-0.813-1.77-1.476l-0.005-0.005c-0.178-0.255-0.338-0.529-0.48-0.818-0.145-0.292-0.266-0.596-0.366-0.906s-0.178-0.627-0.23-0.945c-0.052-0.315-0.080-0.63-0.085-0.939-0.008-0.779 0.145-1.517 0.483-2.114 0.305-0.534 0.759-0.952 1.375-1.185 0.023-0.036 0.041-0.067 0.062-0.093 0.034-0.044 0.070-0.083 0.119-0.124l0.010-0.008c0.052-0.044 0.101-0.072 0.157-0.101 0.052-0.023 0.111-0.046 0.191-0.075l0.072-0.026c3.28-1.208 5.548-2.751 7.177-4.261s2.619-2.986 3.334-4.059l0.015-0.023c0.4-0.599 0.723-1.076 1.045-1.399v0c0.083-0.083 0.155-0.15 0.232-0.206 0.080-0.059 0.163-0.106 0.258-0.142 0.101-0.036 0.199-0.057 0.305-0.062 0.103-0.005 0.214 0.005 0.343 0.026 0.305 0.049 0.614 0.175 0.926 0.372 0.317 0.199 0.637 0.47 0.955 0.8 0.707 0.733 1.435 1.791 2.119 3.027 0.712 1.285 1.378 2.761 1.925 4.271 0.563 1.548 1.006 3.133 1.257 4.586 0.23 1.339 0.297 2.57 0.137 3.554-0.067 0.413-0.173 0.79-0.32 1.115-0.145 0.32-0.333 0.596-0.565 0.821-0.010 0.010-0.023 0.021-0.034 0.031-0.015 0.010-0.031 0.023-0.046 0.034-0.152 0.101-0.299 0.173-0.446 0.219-0.15 0.049-0.299 0.072-0.449 0.080h-0.010c-0.052 0-0.101 0-0.147-0.003-0.036-0.008-0.080-0.010-0.121-0.015v0zM26.71 21.543c-0.359 0.015-0.658-0.263-0.671-0.622-0.015-0.359 0.263-0.658 0.622-0.671l4.542-0.17c0.356-0.010 0.655 0.268 0.671 0.622 0.013 0.359-0.263 0.658-0.622 0.674l-4.542 0.168zM26.581 17.13c-0.356 0.046-0.681-0.204-0.728-0.555-0.046-0.356 0.204-0.681 0.555-0.728l4.196-0.557c0.356-0.046 0.681 0.204 0.728 0.555 0.046 0.356-0.204 0.681-0.555 0.728l-4.196 0.557zM25.698 13.079c-0.338 0.116-0.71-0.062-0.826-0.4-0.119-0.338 0.062-0.71 0.4-0.826l4.302-1.494c0.338-0.121 0.71 0.062 0.826 0.4 0.119 0.338-0.062 0.71-0.4 0.826l-4.302 1.494zM23.67 9.179c-0.31 0.178-0.707 0.070-0.883-0.243-0.178-0.31-0.070-0.705 0.243-0.883l4.077-2.338c0.31-0.178 0.707-0.070 0.883 0.243 0.178 0.31 0.070 0.705-0.243 0.883l-4.077 2.338z"></path>
</symbol>
<symbol id="architect-icon" viewBox="0 0 32 32">
<path d="M0.964 20.798l0.049-0.044c0.094-0.083 0.193-0.157 0.292-0.223 0.208-0.138 0.43-0.244 0.664-0.326 0.199-0.070 0.409-0.124 0.631-0.169v-13.059c-1.661 0.254-1.65 1.921-1.641 3.473 0.014 0.081 0.003 0.3 0.004 0.396l0.001 9.952zM23.87 14.464c-0.764 0.341-1.383 0.873-1.551 2.123-0.018 0.138-0.149 0.234-0.293 0.218-0.144-0.018-0.245-0.144-0.227-0.281 0.196-1.457 0.943-2.119 1.868-2.524 0.466-0.204 0.974-0.286 1.477-0.257 1.527 0.085 3.096 1.162 3.166 2.804 0.006 0.139-0.107 0.256-0.252 0.261s-0.266-0.102-0.271-0.241c-0.043-1.023-0.65-1.571-1.446-1.984-0.133-0.069-0.076-0.033-0.197-0.036-0.456-0.011-0.301 1.754-0.301 2.215 0 0.141-0.117 0.256-0.26 0.256s-0.261-0.114-0.261-0.256c0-0.723-0.123-1.929 0.253-2.454-0.152-0.032-0.307-0.053-0.461-0.062-0.195-0.011-0.39-0.002-0.581 0.026 0.355 0.551 0.235 1.753 0.235 2.49 0 0.14-0.114 0.254-0.254 0.254s-0.254-0.114-0.254-0.254c0-0.346 0.133-1.89-0.183-2.229-0.075-0.081-0.124-0.042-0.209-0.070zM28.089 17.663c0.093 0.226 0.137 0.419 0.193 0.656 0.009 0.038 0.013 0.058 0.016 0.084s0.002 0.051 0.001 0.103c-0.011 0.444-0.129 1.342-0.651 1.49l-0.019 0.067-0.032 0.126c-0.17 0.628-0.507 1.179-0.961 1.562-0.915 0.772-2.244 0.739-3.139-0.049-0.407-0.359-0.717-0.853-0.926-1.413-0.043-0.114-0.076-0.226-0.114-0.341l-0.006-0.016c-0.42-0.076-0.611-0.749-0.646-1.105-0.036-0.358 0.099-0.764 0.236-1.093-0.043-0.024-0.084-0.047-0.123-0.072-0.261-0.164-0.459-0.363-0.571-0.598l0.476-0.208c0.068 0.144 0.201 0.273 0.381 0.385 0.582 0.364 1.605 0.539 2.663 0.542 1.066 0.003 2.151-0.17 2.848-0.501 0.275-0.13 0.481-0.281 0.586-0.451l0.449 0.258c-0.138 0.222-0.367 0.413-0.661 0.571zM22.566 17.962l-0.006 0.005c-0.339 0.303-0.355 1.212 0.003 1.531 0.026 0.024 0.050 0.036 0.069 0.032 0.227-0.071 0.275 0.246 0.317 0.387 0.212 0.673 0.596 1.164 1.051 1.464 0.342 0.226 0.724 0.343 1.104 0.348 0.378 0.005 0.754-0.101 1.084-0.324 0.401-0.271 0.736-0.714 0.926-1.338 0.039-0.149 0.083-0.512 0.308-0.467h0.001c0.184 0.026 0.366-0.727 0.379-0.874 0.014-0.152-0.026-0.253-0.069-0.362-0.058-0.145-0.098-0.291-0.159-0.436-0.005-0.011-0.008-0.025-0.008-0.038 0-0.001 0-0.002 0-0.002v0c-1.346 0.471-3.579 0.558-5.001 0.074zM32 25.824c-0.147-1.912 0.228-1.811-1.373-2.412-0.799-0.299-2.184-0.679-2.919-1.136l-1.372 3.547h5.664zM18.303 25.824c0.147-1.912-0.227-1.811 1.374-2.412 0.799-0.299 2.184-0.679 2.919-1.136l1.372 3.547h-5.664zM25.536 23.948h0.191c0.173 0 0.315-0.141 0.315-0.314v-0.511c0-0.172-0.142-0.314-0.315-0.314h-1.138c-0.172 0-0.314 0.141-0.314 0.314v0.511c0 0.173 0.141 0.314 0.314 0.314h0.194l-0.371 1.877h1.483l-0.358-1.877zM18.347 18.403h-1.279c-0.251 0-0.454-0.204-0.454-0.455s0.204-0.454 0.454-0.454h1.279v-4.741h-4.864v4.741h1.733c0.251 0 0.454 0.204 0.454 0.454s-0.204 0.455-0.454 0.455h-1.733v0.466c0 0.251-0.203 0.454-0.454 0.454v0c-0.251 0-0.454-0.203-0.454-0.454v-6.116h-5.997v3.18h2.937c0.251 0 0.454 0.204 0.454 0.454v5.379h2.589v-1.279c0-0.251 0.204-0.454 0.454-0.454s0.454 0.204 0.454 0.454v1.279h0.139c0.251 0 0.454 0.204 0.454 0.454s-0.203 0.454-0.454 0.454h-7.482c-0.251 0-0.454-0.203-0.454-0.454v-9.921c0-0.251 0.203-0.455 0.454-0.455h12.678c0.251 0 0.455 0.204 0.455 0.455v0 9.921c0 0.251-0.204 0.454-0.455 0.454h-3.578c-0.251 0-0.454-0.203-0.454-0.454v0c0-0.251 0.204-0.454 0.454-0.454h3.123v-3.363zM6.577 16.842v4.924h2.482v-4.924h-2.482zM3.479 20.429c-0.006 0.098-0.044 0.188-0.106 0.26-0.067 0.077-0.16 0.131-0.265 0.147l-0.002 0-0.010 0.001c-0.259 0.040-0.498 0.089-0.717 0.156-0.216 0.066-0.414 0.152-0.591 0.269-0.167 0.111-0.319 0.253-0.458 0.436s-0.263 0.407-0.376 0.684c-0.059 1.543 0.544 2.402 2.056 2.659h14.236c-0.006 0.163-0.015 0.363-0.035 0.64-0.006 0.046-0.009 0.094-0.009 0.142 0 0.035 0.002 0.069 0.005 0.104h-14.224c-1.974 0-2.988-1.915-2.903-3.645 0-3.818-0.183-8.077 0.001-11.84-0.007-1.022-0.013-2.085 0.343-2.912 0.367-0.851 1.101-1.441 2.571-1.468 0.264-0.011 0.487 0.164 0.487 0.439v2.089h21.236c0.348 0 0.637 0.286 0.637 0.637v3.431c-0.051-0.004-0.101-0.008-0.151-0.011-0.246-0.014-0.491-0.008-0.734 0.018l0.001-3.193h-20.99l-0.003 10.957z"></path>
</symbol>
<symbol id="bus-stop-location-icon" viewBox="0 0 32 32">
<path d="M19.786 16.302c0.288 0.001 0.411-0.136 0.411-0.519v-6.623c0.169 0.016 0.254 0.053 0.295 0.139v1.918h0.369c0.23 0 0.419-0.189 0.419-0.419v-1.129c0-0.226-0.182-0.411-0.406-0.418-0.035-0.326-0.176-0.421-0.689-0.447-0.070-0.573-0.459-0.997-1.17-1.271-1.615-0.309-4.506-0.279-6.029 0-0.712 0.274-1.101 0.697-1.171 1.271-0.511 0.025-0.652 0.119-0.688 0.448-0.225 0.006-0.407 0.193-0.407 0.418v1.129c0 0.23 0.189 0.419 0.418 0.419h0.37v-1.912c0.041-0.088 0.126-0.127 0.294-0.144v6.688c0.023 0.287 0.168 0.45 0.473 0.454h0.444v0.819c0 0.321 0.262 0.583 0.583 0.583h0.342c0.321 0 0.583-0.262 0.583-0.583v-0.819h3.529v0.819c0 0.321 0.262 0.583 0.583 0.583h0.343c0.321 0 0.583-0.262 0.583-0.583v-0.819h0.521zM17.356 26.041c1.964-1.209 3.68-2.855 5.018-4.749 1.359-1.924 2.34-4.126 2.809-6.406 0.311-1.507 0.385-3.013 0.197-4.437-0.184-1.405-0.626-2.737-1.344-3.924-0.218-0.357-0.465-0.707-0.744-1.047-0.274-0.335-0.567-0.646-0.874-0.924-0.871-0.795-1.827-1.394-2.829-1.809-1.036-0.422-2.124-0.632-3.226-0.641-1.106-0.007-2.21 0.19-3.27 0.581-1.046 0.386-2.059 0.961-2.998 1.708-0.417 0.331-0.797 0.69-1.134 1.071-0.355 0.393-0.668 0.806-0.939 1.227-0.674 1.061-1.117 2.238-1.338 3.485-0.22 1.243-0.216 2.561 0.001 3.906 0.207 1.294 0.613 2.602 1.202 3.877 0.578 1.245 1.332 2.469 2.254 3.624 0.681 0.858 1.456 1.679 2.317 2.442 0.831 0.741 1.748 1.438 2.741 2.069l0.005 0.006c0.318 0.202 0.679 0.299 1.039 0.299h0c0.417-0.002 0.803-0.136 1.113-0.358zM16.509 24.657c-0.154 0.113-0.363 0.128-0.533 0.018-1.845-1.174-3.397-2.585-4.614-4.116-1.681-2.109-2.74-4.447-3.102-6.699-0.369-2.283-0.024-4.479 1.112-6.265 0.448-0.706 1.020-1.349 1.717-1.904 1.604-1.279 3.436-1.952 5.258-1.939 1.758 0.013 3.491 0.669 4.989 2.036 0.527 0.478 0.97 1.027 1.332 1.622 1.222 2.012 1.485 4.578 0.947 7.179-0.837 4.075-3.529 7.896-7.107 10.068zM29.545 28.136h-27.171l2.078-6.779c0.088-0.289 0.269-0.574 0.574-0.574h1.802l-0.943-1.759h-0.859c-0.655 0-1.172 0.261-1.576 0.663h-0.007c-0.327 0.327-0.541 0.749-0.668 1.155l-2.774 9.054h32l-3.101-9.102c-0.114-0.335-0.287-0.683-0.555-0.989-0.413-0.473-0.959-0.781-1.683-0.781h-0.426l-0.866 1.759h1.293c0.304 0 0.473 0.278 0.574 0.574l2.309 6.779zM15.162 15.354h1.676c0.045 0 0.082 0.037 0.082 0.082v0.281c0 0.045-0.038 0.082-0.082 0.082h-1.676c-0.045 0-0.082-0.037-0.082-0.082v-0.281c0-0.045 0.037-0.082 0.082-0.082zM19.53 15.359c0.12 0 0.218 0.098 0.218 0.218s-0.098 0.218-0.218 0.218v0c-0.119 0-0.217-0.098-0.217-0.218 0 0 0 0 0 0 0-0.12 0.097-0.217 0.217-0.217h0zM12.359 15.359c0.12 0 0.218 0.098 0.218 0.218s-0.098 0.218-0.218 0.218v0c-0.12 0-0.218-0.098-0.218-0.218s0.098-0.218 0.218-0.218v0zM19.914 14.61c-0.015 0.131-0.076 0.216-0.204 0.238l-1.313 0.096c-0.124 0.022-0.162-0.099-0.067-0.161 0.443-0.325 0.906-0.623 1.397-0.882 0.096-0.016 0.15 0.028 0.163 0.13l0.024 0.58zM12.053 14.61l0.024-0.58c0.013-0.102 0.067-0.146 0.163-0.13 0.491 0.259 0.953 0.557 1.397 0.882 0.094 0.063 0.056 0.183-0.068 0.161l-1.313-0.096c-0.127-0.022-0.189-0.107-0.204-0.238zM14.861 7.836h2.278c0.076 0 0.139 0.064 0.139 0.14v0.362c0 0.076-0.063 0.139-0.139 0.139h-2.278c-0.076 0-0.139-0.063-0.139-0.139v-0.362c0-0.077 0.063-0.14 0.139-0.14zM12.466 8.936h7.036c0.093 0 0.17 0.076 0.17 0.171v3.712c0 0.092-0.076 0.145-0.17 0.17-2.413 0.733-4.623 0.703-7.036 0-0.095-0.026-0.17-0.078-0.17-0.17v-3.713c-0.001-0.094 0.077-0.17 0.17-0.17z"></path>
</symbol>
<symbol id="floor-plan-icon" viewBox="0 0 32 32">
<path d="M24.63 25.459c-0.359 0-0.65-0.291-0.65-0.65s0.291-0.65 0.65-0.65v0h1.246v-4.907h-1.207c-0.359 0-0.65-0.291-0.65-0.65s0.291-0.65 0.65-0.65v0h1.207v-6.889h-5.104v6.902h1.21c0.359 0 0.65 0.291 0.65 0.65s-0.291 0.65-0.65 0.65v0h-1.21v1.348c0 0.359-0.291 0.65-0.65 0.65s-0.65-0.291-0.65-0.65v0-9.551h-8.718v4.639h4.272c0.001 0 0.002 0 0.003 0 0.356 0 0.645 0.289 0.645 0.645 0 0 0 0 0 0v0 7.818h3.783v-1.207c0-0.359 0.291-0.65 0.65-0.65s0.65 0.291 0.65 0.65v0 1.207h1.532c0.359 0 0.65 0.291 0.65 0.65s-0.291 0.65-0.65 0.65v0h-12.183c-0.358 0-0.648-0.29-0.648-0.648v0-14.41c0.001-0.357 0.291-0.646 0.648-0.648h16.432c0.352 0.009 0.633 0.295 0.635 0.648v14.405c0 0 0 0 0 0 0 0.353-0.283 0.64-0.634 0.648h-0.001zM1.381 22.946l0.073-0.052c0.126-0.111 0.263-0.218 0.408-0.314l0.014-0.009c0.278-0.185 0.597-0.345 0.935-0.464l0.030-0.009c0.252-0.092 0.559-0.176 0.875-0.238l0.041-0.007v-18.966c-2.409 0.369-2.393 2.789-2.381 5.042 0.062 3.122-0.141 11.348 0 15.017zM5.024 22.41c-0.011 0.145-0.067 0.275-0.154 0.378l0.001-0.001c-0.098 0.113-0.233 0.191-0.387 0.213l-0.003 0c-0.4 0.057-0.751 0.136-1.092 0.24l0.052-0.013c-0.326 0.096-0.61 0.229-0.868 0.398l0.013-0.008c-0.259 0.176-0.479 0.385-0.661 0.625l-0.005 0.007c-0.213 0.284-0.396 0.61-0.536 0.957l-0.010 0.029c-0.005 0.088-0.008 0.191-0.008 0.294 0 0.401 0.042 0.791 0.121 1.168l-0.006-0.037c0.088 0.429 0.254 0.809 0.483 1.142l-0.007-0.010c0.242 0.334 0.549 0.606 0.904 0.799l0.014 0.007c0.427 0.232 0.924 0.401 1.45 0.481l0.025 0.003h26.328v-22.579h-25.639v15.906zM5.024 5.24h26.016c0.127 0.001 0.247 0.026 0.357 0.073l-0.006-0.002c0.228 0.097 0.405 0.275 0.5 0.496l0.002 0.006c0.044 0.105 0.070 0.226 0.070 0.354v23.308c-0.001 0.127-0.026 0.247-0.073 0.357l0.002-0.006c-0.050 0.116-0.118 0.215-0.2 0.299l0-0c-0.084 0.083-0.183 0.15-0.293 0.198l-0.006 0.002c-0.102 0.044-0.222 0.070-0.347 0.070-0.001 0-0.003 0-0.004 0h-26.729c-0.69-0.037-1.326-0.237-1.88-0.562l0.019 0.011c-0.616-0.324-1.13-0.762-1.532-1.29l-0.008-0.011c-0.311-0.445-0.545-0.968-0.671-1.532l-0.005-0.029c-0.094-0.434-0.148-0.933-0.148-1.445 0-0.151 0.005-0.3 0.014-0.448l-0.001 0.020c0-5.591-0.229-11.65 0-17.171 0-1.483-0.018-3.026 0.499-4.225s1.597-2.11 3.728-2.152h0.068c0.353 0 0.64 0.287 0.64 0.64v0 3.031zM10.747 17.002v7.162h3.629v-7.17z"></path>
</symbol>
<symbol id="home-architecture-plan-icon" viewBox="0 0 32 32">
<path d="M0.921 23.563c0.245-0.291 0.513-0.526 0.804-0.718 0.585-0.388 1.246-0.593 1.995-0.731 0-6.54 0-13.078 0-19.619-2.838 0.278-2.82 2.903-2.805 5.341 0.003 0.328 0.005 0.499 0.005 0.58v15.147zM4.631 9.665h13.984v-3.468h-13.984v3.468zM17.756 10.344h-13.125v7.391h5.594c-0.117-0.156-0.19-0.341-0.213-0.544-0.036-0.33 0.062-0.708 0.343-1.059v0c0.013-0.018 0.031-0.034 0.049-0.049l7.352-5.739zM12.412 17.735h6.2v-4.899l-6.207 4.839c0.005 0.021 0.008 0.042 0.008 0.060v0zM19.286 17.735l5.851-0.005c0-0.021 0.003-0.039 0.005-0.057l-5.856-4.667v4.73zM27.416 17.735h3.642v-11.538h-11.772v3.72l7.896 6.137c0.013 0.010 0.023 0.021 0.036 0.034 0.38 0.408 0.474 0.864 0.382 1.246-0.036 0.148-0.099 0.284-0.185 0.401v0zM31.058 18.414h-5.159v7.321c0 0.166-0.135 0.302-0.302 0.302h-13.643c-0.166 0-0.302-0.135-0.302-0.302v-7.321h-7.022v4.079h-0.003c0 0.221-0.159 0.414-0.385 0.447-0.791 0.122-1.467 0.294-2.019 0.658-0.528 0.349-0.963 0.892-1.314 1.772-0.047 1.113 0.135 2.050 0.627 2.75 0.494 0.705 1.324 1.192 2.581 1.402h26.937v-11.109h0.003zM25.137 18.414h-5.851v6.861h5.851v-6.861zM18.615 18.414h-6.2v6.861h6.2v-6.861zM19.286 10.68v1.556l6.686 5.198c0.003 0.003 0.005 0.005 0.010 0.008 0.255 0.182 0.5 0.213 0.687 0.146 0.088-0.031 0.164-0.083 0.224-0.151s0.104-0.148 0.125-0.239c0.047-0.198-0.010-0.442-0.221-0.679l-7.511-5.838zM18.615 12.077v-1.644l-7.813 6.101c-0.159 0.208-0.216 0.416-0.195 0.591 0.010 0.101 0.047 0.19 0.104 0.26 0.055 0.070 0.133 0.125 0.224 0.154 0.156 0.052 0.359 0.039 0.591-0.070l7.089-5.391zM4.631 5.289h26.596c0.206 0 0.39 0.083 0.526 0.219s0.219 0.32 0.219 0.526v23.662c0 0.203-0.083 0.388-0.219 0.523l-0.003 0.003c-0.135 0.135-0.32 0.219-0.523 0.219h-27.135c-1.111 0-2.651-0.872-3.294-1.79-0.63-0.895-0.856-2.045-0.788-3.385v-16.848c0-0.466 0-0.515 0-0.578-0.021-2.981-0.042-6.205 4.113-6.275 0.018-0.003 0.034-0.003 0.052-0.003 0.252 0 0.455 0.203 0.455 0.455v3.273z"></path>
</symbol>
<symbol id="icon-home-electricity-power-svgrepo-com" viewBox="0 0 32 32">
<path stroke-linejoin="round" stroke-linecap="round" stroke-miterlimit="10" stroke-width="2" d="M16 9l8.5 9h4.5l-13-14-13 14h4.5z"></path>
<path stroke-linejoin="round" stroke-linecap="round" stroke-miterlimit="10" stroke-width="2" d="M16 24v0c-1.7 0-3-1.3-3-3v-3h6v3c0 1.7-1.3 3-3 3z"></path>
<path stroke-linejoin="round" stroke-linecap="round" stroke-miterlimit="10" stroke-width="2" d="M14 15v3"></path>
<path stroke-linejoin="round" stroke-linecap="round" stroke-miterlimit="10" stroke-width="2" d="M18 15v3"></path>
<path stroke-linejoin="round" stroke-linecap="round" stroke-miterlimit="10" stroke-width="2" d="M16 25v0c0 1.7 1.3 3 3 3v0"></path>
<path stroke-linejoin="round" stroke-linecap="round" stroke-miterlimit="10" stroke-width="2" d="M14 28h-7v-10"></path>
<path stroke-linejoin="round" stroke-linecap="round" stroke-miterlimit="10" stroke-width="2" d="M25 18v10h-6"></path>
</symbol>
<symbol id="smart-home-electricity-icon" viewBox="0 0 32 32">
<path d="M28.158 14.043h3.123l-15.282-14.043-15.282 14.043h3.123v16.835h-2.432v1.122h29.18v-1.122h-2.432v-16.835zM3.598 12.921l1.628-1.496h16.385v-1.122h-15.164l9.552-8.778 12.402 11.396-24.804 0zM4.964 17.41h4.302v-1.122h-4.302v-2.245h22.072v2.245h-4.302v1.122h4.302v13.468h-10.475v-3.741h4.115v-5.238h1.122v-3.741h-2.993v-2.806h-1.122v2.806h-3.367v-2.806h-1.122v2.806h-2.993v3.741h1.122v5.238h4.115v3.741h-10.475v-13.468zM20.676 19.28v1.496h-9.353v-1.496h9.353zM12.446 21.899h7.108v4.115h-7.108v-4.115z"></path>
<path d="M16 4.316c-1.341 0-2.432 1.091-2.432 2.432s1.091 2.432 2.432 2.432c1.341 0 2.432-1.091 2.432-2.432s-1.091-2.432-2.432-2.432zM16 8.057c-0.722 0-1.309-0.587-1.309-1.309s0.587-1.309 1.309-1.309 1.309 0.587 1.309 1.309-0.587 1.309-1.309 1.309z"></path>
<path d="M14.129 23.396h3.741v1.122h-3.741v-1.122z"></path>
<path d="M6.273 28.259h1.496v1.122h-1.496v-1.122z"></path>
<path d="M8.518 28.259h1.496v1.122h-1.496v-1.122z"></path>
<path d="M6.273 26.015h1.496v1.122h-1.496v-1.122z"></path>
<path d="M24.23 28.259h1.496v1.122h-1.496v-1.122z"></path>
<path d="M24.23 26.015h1.496v1.122h-1.496v-1.122z"></path>
<path d="M21.985 28.259h1.496v1.122h-1.496v-1.122z"></path>
</symbol>
<symbol id="tram-transport-icon" viewBox="0 0 32 32">
<path d="M24.824 0h-17.647c-1.618 0-2.941 1.324-2.941 2.941v21.176c0 1.676 1.706 2.941 3.235 2.941h2.676l-0.588 1.176h-2.676c-0.324 0-0.588 0.265-0.588 0.588s0.265 0.588 0.588 0.588h2.088l-0.882 1.735c-0.147 0.294-0.029 0.647 0.265 0.794 0.088 0.029 0.176 0.059 0.265 0.059 0.206 0 0.412-0.118 0.529-0.324l1.147-2.265h11.529l1.147 2.265c0.118 0.206 0.324 0.324 0.529 0.324 0.088 0 0.176-0.029 0.265-0.059 0.294-0.147 0.412-0.5 0.265-0.794l-0.882-1.735h1.971c0.324 0 0.588-0.265 0.588-0.588s-0.265-0.588-0.588-0.588h-2.559l-0.588-1.176h2.853c1.618 0 2.941-1.324 2.941-2.941v-21.176c0-1.618-1.324-2.941-2.941-2.941zM10.882 28.235l0.588-1.176h9.147l0.618 1.176h-10.353zM26.588 24.118c0 0.971-0.794 1.765-1.765 1.765h-17.353c-0.941 0-2.059-0.794-2.059-1.765v-5.294h21.176v5.294zM26.588 17.647h-21.176v-11.765h15.588c0.324 0 0.588-0.265 0.588-0.588s-0.265-0.588-0.588-0.588h-15.588v-1.765c0-0.971 0.794-1.765 1.765-1.765h17.647c0.971 0 1.765 0.794 1.765 1.765v14.706z"></path>
<path d="M24.529 4.706h-0.882c-0.324 0-0.588 0.265-0.588 0.588s0.265 0.588 0.588 0.588h0.882c0.324 0 0.588-0.265 0.588-0.588s-0.265-0.588-0.588-0.588z"></path>
<path d="M10.118 23.235c0.971 0 1.765-0.794 1.765-1.765s-0.794-1.765-1.765-1.765-1.765 0.794-1.765 1.765 0.794 1.765 1.765 1.765zM10.118 20.882c0.324 0 0.588 0.265 0.588 0.588s-0.265 0.588-0.588 0.588c-0.324 0-0.588-0.265-0.588-0.588s0.265-0.588 0.588-0.588z"></path>
<path d="M21.882 23.235c0.971 0 1.765-0.794 1.765-1.765s-0.794-1.765-1.765-1.765-1.765 0.794-1.765 1.765 0.794 1.765 1.765 1.765zM21.882 20.882c0.324 0 0.588 0.265 0.588 0.588s-0.265 0.588-0.588 0.588c-0.324 0-0.588-0.265-0.588-0.588s0.265-0.588 0.588-0.588z"></path>
</symbol>
</defs>
</svg>
